<svg xmlns="http://www.w3.org/2000/svg" viewBox="0 0 1000 1000"><defs><style>.cls-1{fill:#868786;}.cls-2{fill:#ffcf0a;}.cls-3{fill:#050009;}.cls-4{fill:#fff;}.cls-5{font-size:87.92px;font-family:TanseekModernProArabic-ExBold, TanseekModernProArabic ExBold;font-weight:700;letter-spacing:0.45em;}.cls-6{letter-spacing:0.38em;}.cls-7{letter-spacing:0.45em;}.cls-8{fill:#858685;}.cls-9{fill:#868686;}.cls-10{fill:#888685;}</style></defs><title>logo yhfor motion</title><g id="yellow_om3_shadow_" data-name="yellow om3 shadow\"><path class="cls-1" d="M518.65,438.71c1.91-2.9,4.51-5.22,6.77-7.81,6.93-7.93,13.73-16,20.2-24.26,6.26-8,12.32-16.24,18-24.71a303,303,0,0,0,16.79-27.88,183.63,183.63,0,0,0,12.46-29c3.43-10.66,5.38-21.54,4.68-32.77a83.21,83.21,0,0,0-9.39-34,82.78,82.78,0,0,0-64.49-43.8,8.07,8.07,0,0,1-1.17-.31,77.44,77.44,0,0,1,31.42,6.57c22.77,10,38.27,26.88,46.3,50.46A78.38,78.38,0,0,1,604,303.61a103.14,103.14,0,0,1-6.83,27.69c-6.53,17.18-15.59,33-25.75,48.25A456.06,456.06,0,0,1,534.8,427c-3.2,3.66-6.48,7.24-9.73,10.85C522.86,440.33,521.51,440.5,518.65,438.71Z"/></g><g id="yellow_om3" data-name="yellow om3"><path class="cls-2" d="M253.19,336.26a1.4,1.4,0,0,1-.36-.19,1.17,1.17,0,0,0,.12-.42C253,335.84,253.1,336.05,253.19,336.26Z"/><path class="cls-2" d="M268.52,326.66a57.57,57.57,0,0,1-5.69-12.1c.6,1.59,1.26,3.16,2,4.73.53,1.16,1.1,2.31,1.69,3.45.18.37.38.73.57,1.09.37.69.75,1.37,1.13,2.05A3.29,3.29,0,0,1,268.52,326.66Z"/><path class="cls-2" d="M253,335.65c-.84-2.12-1.35-3.51-1.46-3.82.4,1,.82,1.91,1.25,2.86A1.88,1.88,0,0,1,253,335.65Z"/></g><g id="black_kup" data-name="black  kup"><path class="cls-3" d="M517.66,576.79c0-.75,0-1.49,0-2.23q0-54.09,0-108.18c0-1-.47-2.22.92-2.78,1,0,2,0,3,0H854.75c3.44,0,3.44,0,3.44,3.56q0,53.37,0,106.74c0,3.32.43,2.91-2.85,2.91h-335C519.47,576.86,518.56,576.81,517.66,576.79Z"/></g><g id="home"><path class="cls-4" d="M778.6,567c-3.22,0-6.43,0-9.64,0-2.47,0-5,0-7.42,0-1,0-1.52-.16-1.51-1.33.18-12.58-.55-25.2,1.15-37.74.43-3.16.75-6.34,1.1-9.51v0l.07-2.61-1.49,3v0c-4.4,12.86-9.63,25.39-14.84,37.94l0,.06-1.55,4h-8.21l-2.2-6.33h0l0-.07c-.39-.95-.78-1.9-1.18-2.84-4-9.64-8-19.29-11.3-29.19v0l-2.26-5.53.33,6.41a1.94,1.94,0,0,0,0,.24c.25,2.46.49,4.92.77,7.37a146.21,146.21,0,0,1,.87,18c0,5.43,0,10.87,0,16.31,0,2,0,2-2,2H703.87c-2.48,0-2.29.14-2.29-2.25V489.42c0-.66,0-1.32,0-2s.34-.88.93-.89h19c2.1,0,2.11,0,2.9,2.1,2.74,7.23,5.44,14.47,8.21,21.68,2.64,6.83,5.07,13.73,7.4,20.67a5.23,5.23,0,0,0,.93,2,4.8,4.8,0,0,0,1-2.29c4.74-14.19,10.05-28.18,15.12-42.26.7-1.94.72-1.94,2.76-1.94,5.85,0,11.7,0,17.55,0,2.26,0,2.43-.55,2.43,2.37q0,20.38,0,40.77V564c0,.58,0,1.16,0,1.73C780,566.74,779.53,567,778.6,567Z"/><path class="cls-4" d="M531.48,526.77V489.71a14.61,14.61,0,0,0,0-1.48c-.14-1.25.31-1.74,1.64-1.71,3.38.08,6.76,0,10.13,0,2.56,0,5.11,0,7.67,0,1.82,0,1.85,0,1.85,1.93,0,8.32,0,16.64,0,25,0,3.59-.48,3.09,3.16,3.11q9.51,0,19,0c1.85,0,1.87,0,1.88-1.92q0-13,0-25.94c0-2.35,0-2.15,2.15-2.15h17.06c2.05,0,2.08,0,2.08,1.95v76.59c0,1.89,0,1.92-1.84,1.92-5.86,0-11.71,0-17.56,0-2.05,0-1.89-.06-1.89-1.89q0-13.46,0-26.93c0-.57,0-1.15,0-1.73.1-1.06-.35-1.46-1.42-1.44-2.3.06-4.61,0-6.92,0-4.61,0-9.23,0-13.84,0-1.87,0-1.9,0-1.9,1.91q0,13.35,0,26.69c0,.49,0,1,0,1.48,0,1.84,0,1.86-1.89,1.87q-8.77,0-17.55,0c-1.81,0-1.84,0-1.84-1.94Q531.47,545.93,531.48,526.77Z"/><path class="cls-4" d="M797.72,526.67V489.86c0-.41,0-.82,0-1.23,0-2.05,0-2.08,2-2.08h47.94c2.06,0,2.09,0,2.09,2q0,7,0,14.08c0,1.72,0,1.76-1.77,1.76-8.73,0-17.47,0-26.2,0-2.95,0-2.7-.43-2.71,2.82,0,2.71,0,5.43,0,8.15,0,1.68.05,1.71,1.81,1.71,7.17,0,14.34,0,21.5,0,.58,0,1.16,0,1.73,0,.8,0,1.2.25,1.2,1.12q0,7.79,0,15.56c0,1.1-.64,1.14-1.45,1.14-2.63,0-5.27,0-7.9,0-5,0-10.05,0-15.08,0-1.77,0-1.8,0-1.81,1.69,0,3.62,0,7.24,0,10.87,0,1.73,0,1.76,1.75,1.76,5.35,0,10.71,0,16.06,0h11.87c2.45,0,2.19-.23,2.19,2.29,0,4.28,0,8.57,0,12.85,0,3.06.34,2.66-2.57,2.66q-20.39,0-40.77,0h-7.42c-2.68,0-2.44.35-2.44-2.56Q797.72,545.56,797.72,526.67Z"/><path class="cls-4" d="M685.15,510.7c-3.65-12-11.13-20.35-23.38-24a42,42,0,0,0-17.1-1.32C631,487.06,621,493.9,616,506.82a53.4,53.4,0,0,0,.43,40.45A32.36,32.36,0,0,0,638,566.82a40.85,40.85,0,0,0,17.59,1.29c13.16-1.79,22.47-8.71,27.81-20.87,2.88-6.59,3.91-13.55,3.86-21.31A49,49,0,0,0,685.15,510.7Zm-21.64,28.5a19.78,19.78,0,0,1-3.29,6,13.22,13.22,0,0,1-20.82-.17,22.74,22.74,0,0,1-4.31-10.12,42.4,42.4,0,0,1,.64-19.56,19.87,19.87,0,0,1,2.66-5.81,13.71,13.71,0,0,1,23.08.19c2.66,4,3.53,8.64,3.9,13.36.08,1.14,0,2.3,0,3.45A35.22,35.22,0,0,1,663.51,539.2Z"/></g><g id="yellow_kup" data-name="yellow kup"><path class="cls-2" d="M517.66,576.79c-.91,0-1.81.11-2.71.11H179.17c-3.32,0-2.94.44-2.94-2.84q0-54,0-108a10.26,10.26,0,0,0,0-1.24c-.18-1.36.5-1.73,1.72-1.61a14.61,14.61,0,0,0,1.48,0h336c1,0,2.14-.34,3.1.36-.48,34.49-.08,69-.21,103.45,0,2.23,0,4.45,0,6.67A4.56,4.56,0,0,1,517.66,576.79Z"/></g><g id="your"><path class="cls-3" d="M390,512.19v-23c0-2.19,0-2.21,2.09-2.21q7.78,0,15.58,0c2.05,0,2.08,0,2.08,2,0,13.84,0,27.67,0,41.51a56.43,56.43,0,0,1-3.15,19.14c-3.5,9.69-10.3,15.7-20.46,17.65a42.9,42.9,0,0,1-21.94-1.1,25.58,25.58,0,0,1-16-14.77,49.24,49.24,0,0,1-3.84-17.74c-.67-14.9-.18-29.8-.31-44.7,0-1.9,0-1.94,1.89-1.94q8.41,0,16.81,0c1.92,0,1.94,0,2,2.1q0,21,0,42a53.81,53.81,0,0,0,.45,7.39,25.37,25.37,0,0,0,1.18,5,9.74,9.74,0,0,0,8.44,7,17.09,17.09,0,0,0,6.86-.41c3.57-1,5.61-3.57,6.77-6.94A37.51,37.51,0,0,0,390,531C390,524.7,390,518.44,390,512.19Z"/><path class="cls-3" d="M184.68,487.18a4.26,4.26,0,0,1,2.15-.18q8.28,0,16.56,0c3.06,0,2.52-.27,3.44,2.38,3.39,9.79,6.72,19.6,10.15,29.38.35,1,.28,2.76,1.55,2.79,1.49.05,1.37-1.78,1.75-2.83,3.55-9.91,7-19.84,10.53-29.77.69-1.94.71-1.94,2.76-1.95h17.05c.56,0,1.11.05,1.85.08a58.09,58.09,0,0,1-3.07,7.11q-9.93,21.63-19.93,43.24a7.49,7.49,0,0,0-.71,3.32c0,7.91,0,15.82,0,23.72,0,2.26.09,2.12-2.18,2.12H210.53c-2.29,0-2.17.21-2.17-2.1,0-7.66,0-15.32,0-23a10.29,10.29,0,0,0-1-4.5q-11.06-23.85-22-47.73C185.05,488.62,184.53,488,184.68,487.18Z"/><path class="cls-3" d="M492.46,564.25Q485.11,551.1,477.74,538c-1.21-2.16-1.21-2.18,1-3.61a22.94,22.94,0,0,0,9.54-12.21,30.37,30.37,0,0,0,.78-16.32A21.18,21.18,0,0,0,476,490.2,45.1,45.1,0,0,0,458.35,487c-9.31-.07-18.62,0-27.93,0h-.74c-1.7.05-1.7.05-1.74,1.83,0,.49,0,1,0,1.48v73.14a14.57,14.57,0,0,1,0,1.48c-.16,1.27.32,1.7,1.63,1.69,5.61-.07,11.21,0,16.82,0,2,0,2,0,2-2,0-7.16,0-14.33,0-21.49,0-3.71-.52-3.35,3.23-3.33,1.88,0,4.07-.67,5.57.31s1.95,3.15,2.81,4.82q5.22,10.08,10.39,20.2c.42.82.74,1.55,1.92,1.54,7-.05,14,0,21.14,0A5.69,5.69,0,0,0,492.46,564.25Zm-28.78-42a18.61,18.61,0,0,1-6.75,1.25c-2.22.08-4.45-.05-6.66.07-1.43.07-1.63-.6-1.61-1.77,0-2.88,0-5.76,0-8.64h0c0-2.88,0-5.76,0-8.64,0-.79.19-1.25,1.07-1.24,4,.08,8.07-.26,12.07.44,4.74.83,7.24,3.25,7.69,7.36C470.06,516.29,467.93,520.37,463.68,522.21Z"/><path class="cls-3" d="M326.21,507.6c-3.9-9.92-10.79-16.78-21-20.11a40.16,40.16,0,0,0-18-1.61c-13.65,1.83-23.36,8.88-28.33,21.82-4.44,11.54-4.45,23.35-.93,35.1,2.81,9.35,8.31,16.74,17.16,21.3a37.21,37.21,0,0,0,19.36,3.95c13.25-.7,23.45-6.45,29.84-18.3a46.75,46.75,0,0,0,5.26-21.48C329.56,520,328.59,513.64,326.21,507.6Zm-21.2,35c-2.4,4.5-5.94,7.36-11.21,7.79a13,13,0,0,1-11.63-4.66,21.82,21.82,0,0,1-4.64-10.49c-1.35-7.39-1.34-14.75,1.28-21.89,1.75-4.79,4.82-8.4,10-9.68a14,14,0,0,1,16.4,7.37c2.31,4.41,3,9.19,3.13,14.08,0,.41,0,.82,0,1.23C308.35,532,307.73,537.51,305,542.59Z"/></g><g id="istanbul"><text class="cls-5" transform="translate(191.97 652.38)">IS<tspan class="cls-6" x="143.49" y="0">T</tspan><tspan class="cls-7" x="220.15" y="0">ANBUL</tspan></text></g><g id="Layer_12" data-name="Layer 12"><path class="cls-2" d="M596.53,280.2a82.79,82.79,0,0,0-26-46.58A85,85,0,0,0,549,219.42a73,73,0,0,0-26.84-6.69c-4.52,0-9-.16-13.56.17a83.16,83.16,0,0,0-33,9.23,82,82,0,0,0-24.83,19.92A83.22,83.22,0,0,0,433.88,274a84.35,84.35,0,0,0-2.65,15.49,70.13,70.13,0,0,0,.27,14.26,99.69,99.69,0,0,0,4.27,19.17c1.19,3.67,2.47,7.31,4,10.87l0,.06c.4,1,.82,1.91,1.25,2.86a1.88,1.88,0,0,1,.21,1c.07.19.15.4.24.61,2.91,7.24,9.24,21.66,17.05,31.35,3.75,6,7.71,11.94,11.83,17.74q14,19.68,29.8,37.92c3.5,4,7,8,10.61,12,2,2.19,3.57,2.31,6,.61.46-.31.79-.89,1.49-.6.9-.14,1.35-.87,1.91-1.47,2.64-2.83,5.14-5.78,7.69-8.68a447.17,447.17,0,0,0,41.25-54.48c9.88-15.44,18.42-31.56,24.08-49.08C597.78,309.35,599.42,294.92,596.53,280.2Z"/></g><g id="Layer_13" data-name="Layer 13"><circle class="cls-4" cx="514.55" cy="294.68" r="66.8"/></g><g id="h_shadow" data-name="h shadow"><path class="cls-8" d="M523,329.34l18.73-.1c2.77,0,2.72.31,2.71-2.63V297.78c0-.5,0-1,0-1.48.05-2.05.05-2.08,2.05-2.1,2.87,0,5.75,0,8.63,0,.68,0,1.5.32,2-.47.79,0,.81.35.49.91l-7.88.11c-2.56,0-2.57,0-2.57,2.51q0,14.79,0,29.57c0,3.38.18,2.95-2.87,3-6.41,0-12.83,0-19.24,0C524.32,329.76,523.53,330,523,329.34Z"/><path class="cls-9" d="M481.9,329.34l20.46-.1c3.14,0,2.95.39,3-2.87,0-5.67,0-11.34,0-17,0-2.18,0-2.2,2.21-2.2,3.53,0,7.07,0,10.6,0,.63,0,1.33-.22,1.86.34-3.28.37-6.57.08-9.86.17-2,.05-2.06,0-2.06,2,0,5.84,0,11.68,0,17.52,0,2.47,0,2.5-2.35,2.51q-11,0-22,0C483.1,329.76,482.39,330,481.9,329.34Z"/><path class="cls-1" d="M557.59,294.6a.93.93,0,0,0-.49-.91c-3.18-2.83-6.35-5.67-9.56-8.47a2.82,2.82,0,0,1-.79-2.44c0-5.58.08-11.15.12-16.72a9.62,9.62,0,0,0-.21-2.93,1.75,1.75,0,0,1,.24,0c2.73.8,2.73.8,2.71,3.87,0,5.43,0,10.86-.13,16.28a3.2,3.2,0,0,0,1.16,2.77c2.53,2.23,5,4.52,7.48,6.81.46.43,1.09.75,1.29,1.59A3,3,0,0,1,557.59,294.6Z"/><path class="cls-10" d="M537.74,272.39c.36,1.06,0,2.09-.17,3.55-4.16-3.37-7.79-7-11.6-10.36s-7.62-6.93-11.42-10.4a2.68,2.68,0,0,1,3,.75c6.43,6,13,11.84,19.41,17.73C537.62,273.4,537.35,272.71,537.74,272.39Z"/></g><g id="hous"><path class="cls-3" d="M523,329.34l-2.22-.13c-.52-.65-.29-1.42-.29-2.13,0-5.76,0-11.51,0-17.26,0-.77.37-1.65-.42-2.3-3.74-.56-7.51-.24-11.27-.18-1.89,0-2.78,1.37-2.77,3.34,0,4.85,0,9.69,0,14.53a16.3,16.3,0,0,1-.15,2.7c-.18,1-.6,1.63-1.77,1.62-7.38-.13-14.76.2-22.14-.19l-.74-.07c-1.78-.09-1.8-.09-1.81-1.93v-30.6c0-3.31,0-3.31-3.23-3.32a54.26,54.26,0,0,1-8.15-.32c-.22-.74.51-.9.88-1.22q21.45-18.21,42.93-36.39c.86-.72,1.66-1.79,2.77-.31a8.88,8.88,0,0,1,3.61,2.44c5.81,5.52,11.85,10.81,17.78,16.22,2.1,1.92,1.28-.84,1.8-1.45,0-2.63.11-5.26.11-7.89,0-1,.3-1.49,1.41-1.45,2.46.08,4.93.06,7.4.08.87.95.74,2.14.75,3.28,0,4.86.07,9.71,0,14.57a5.83,5.83,0,0,0,2.24,5.14c2,1.59,3.7,3.49,5.66,5.13.87.72,2.15,1.4,1.77,2.95-2.53.48-5.08.16-7.61.21-3.71.07-4.39.65-4.4,4.28,0,8.72,0,17.45,0,26.18a14.83,14.83,0,0,1-.18,3.19c-.19.9-.62,1.48-1.66,1.46C536.44,329.4,529.69,329.74,523,329.34Z"/></g><g id="lens"><path class="cls-3" d="M582.17,288.79a68.82,68.82,0,0,0-61-61.58,65.84,65.84,0,0,0-36.95,6.43,67.74,67.74,0,0,0-33.07,34.25,66,66,0,0,0-5.3,35.93,68.24,68.24,0,0,0,9.39,26.82c.36.6,1.18,1.31.58,2-.86.94-1.83,2.61-2.93,2.35-1.36-.32-2.51.32-3.59.12-1.92-.35-2.94.72-4.11,1.71s-2.07,1.87-3.1,2.83a2,2,0,0,1-1.72.78l-32.77,29.3c-5.34,4.77-10.71,9.5-16,14.33-3.51,3.21-3.69,7.38-.61,11,1.29,1.49,2.72,2.88,3.93,4.43,3.17,4.08,8.43,3.72,11.72.75,14.6-13.19,29.31-26.27,44-39.38.1-1,1-1.5,1.61-2.09,2.42-2.23,4.68-4.73,7.41-6.49,1.3-.83,1.39-2.09,1.59-3.27l.47-3.43c-.16-.83.85-1.31,1.44-1.95.79-.85,1.47-.81,2.28,0q1.65,1.67,3.43,3.19c15.32,13.08,33,18.89,53.06,16.5,20.71-2.48,37-12.64,48.79-29.77A65.89,65.89,0,0,0,582.17,288.79ZM514,351.27c-30.48,0-55.2-25.44-55.2-56.83s24.72-56.83,55.2-56.83,55.2,25.45,55.2,56.83S544.49,351.27,514,351.27Z"/></g></svg>