<?xml version="1.0" encoding="utf-8"?>
<!-- Generator: Adobe Illustrator 24.0.0, SVG Export Plug-In . SVG Version: 6.00 Build 0)  -->
<svg version="1.1" id="Layer_1" xmlns="http://www.w3.org/2000/svg" xmlns:xlink="http://www.w3.org/1999/xlink" x="0px" y="0px"
	 viewBox="0 0 716 457" style="enable-background:new 0 0 716 457;" xml:space="preserve">
<style type="text/css">
	.st0{fill:#868786;}
	.st1{fill:#FFCF0A;}
	.st2{fill:#050009;}
	.st3{fill:#FFFFFF;}
	.st4{enable-background:new    ;}
	.st5{fill:#858685;}
	.st6{fill:#868686;}
	.st7{fill:#888685;}
</style>
<title>logo yhfor motion</title>
<g id="yellow_om3_shadow_">
	<path class="st0" d="M350.7,234.7c1.9-2.9,4.5-5.2,6.8-7.8c6.9-7.9,13.7-16,20.2-24.3c6.3-8,12.3-16.2,18-24.7
		c6.1-9,11.7-18.3,16.8-27.9c5-9.3,9.1-19,12.5-29c3.4-10.7,5.4-21.5,4.7-32.8c-0.7-11.9-3.9-23.5-9.4-34
		c-12.8-24.4-37-40.9-64.5-43.8c-0.4-0.1-0.8-0.2-1.2-0.3c10.8,0,21.5,2.2,31.4,6.6c22.8,10,38.3,26.9,46.3,50.5
		c3.5,10.4,4.8,21.5,3.8,32.4c-1,9.5-3.3,18.8-6.8,27.7c-6.5,17.2-15.6,33-25.8,48.3C392.3,192.2,380,208,366.8,223
		c-3.2,3.7-6.5,7.2-9.7,10.9C354.9,236.3,353.5,236.5,350.7,234.7z"/>
</g>
<g id="yellow_om3">
	<path class="st1" d="M85.2,132.3c-0.1,0-0.2-0.1-0.4-0.2c0.1-0.1,0.1-0.3,0.1-0.4C85,131.8,85.1,132,85.2,132.3z"/>
	<path class="st1" d="M100.5,122.7c-2.4-3.8-4.3-7.9-5.7-12.1c0.6,1.6,1.3,3.2,2,4.7c0.5,1.2,1.1,2.3,1.7,3.5
		c0.2,0.4,0.4,0.7,0.6,1.1c0.4,0.7,0.8,1.4,1.1,2C100.4,122.1,100.5,122.4,100.5,122.7z"/>
	<path class="st1" d="M85,131.6c-0.8-2.1-1.4-3.5-1.5-3.8c0.4,1,0.8,1.9,1.3,2.9C84.9,131,85,131.3,85,131.6z"/>
</g>
<g id="black_kup">
	<path class="st2" d="M349.7,372.8c0-0.8,0-1.5,0-2.2c0-36.1,0-72.1,0-108.2c0-1-0.5-2.2,0.9-2.8c1,0,2,0,3,0h333.2
		c3.4,0,3.4,0,3.4,3.6c0,35.6,0,71.2,0,106.7c0,3.3,0.4,2.9-2.8,2.9h-335C351.5,372.9,350.6,372.8,349.7,372.8z"/>
</g>
<g id="home">
	<path class="st3" d="M610.6,363c-3.2,0-6.4,0-9.6,0c-2.5,0-5,0-7.4,0c-1,0-1.5-0.2-1.5-1.3c0.2-12.6-0.5-25.2,1.2-37.7
		c0.4-3.2,0.8-6.3,1.1-9.5l0,0l0.1-2.6l-1.5,3l0,0c-4.4,12.9-9.6,25.4-14.8,37.9v0.1l-1.5,4h-8.2l-2.2-6.3l0,0v-0.1
		c-0.4-1-0.8-1.9-1.2-2.8c-4-9.6-8-19.3-11.3-29.2l0,0l-2.3-5.5l0.3,6.4c0,0.1,0,0.2,0,0.2c0.3,2.5,0.5,4.9,0.8,7.4
		c0.7,6,1,12,0.9,18c0,5.4,0,10.9,0,16.3c0,2,0,2-2,2h-15.4c-2.5,0-2.3,0.1-2.3-2.3v-75.5c0-0.7,0-1.3,0-2s0.3-0.9,0.9-0.9h19
		c2.1,0,2.1,0,2.9,2.1c2.7,7.2,5.4,14.5,8.2,21.7c2.6,6.8,5.1,13.7,7.4,20.7c0.2,0.7,0.5,1.4,0.9,2c0.5-0.7,0.9-1.5,1-2.3
		c4.7-14.2,10-28.2,15.1-42.3c0.7-1.9,0.7-1.9,2.8-1.9c5.8,0,11.7,0,17.5,0c2.3,0,2.4-0.5,2.4,2.4c0,13.6,0,27.2,0,40.8V360
		c0,0.6,0,1.2,0,1.7C612,362.7,611.5,363,610.6,363z"/>
	<path class="st3" d="M363.5,322.8v-37.1c0-0.5,0-1,0-1.5c-0.1-1.3,0.3-1.7,1.6-1.7c3.4,0.1,6.8,0,10.1,0c2.6,0,5.1,0,7.7,0
		c1.8,0,1.8,0,1.8,1.9c0,8.3,0,16.6,0,25c0,3.6-0.5,3.1,3.2,3.1c6.3,0,12.7,0,19,0c1.8,0,1.9,0,1.9-1.9c0-8.7,0-17.3,0-25.9
		c0-2.4,0-2.1,2.2-2.1H428c2,0,2.1,0,2.1,2v76.6c0,1.9,0,1.9-1.8,1.9c-5.9,0-11.7,0-17.6,0c-2,0-1.9-0.1-1.9-1.9c0-9,0-18,0-26.9
		c0-0.6,0-1.2,0-1.7c0.1-1.1-0.3-1.5-1.4-1.4c-2.3,0.1-4.6,0-6.9,0c-4.6,0-9.2,0-13.8,0c-1.9,0-1.9,0-1.9,1.9c0,8.9,0,17.8,0,26.7
		c0,0.5,0,1,0,1.5c0,1.8,0,1.9-1.9,1.9c-5.8,0-11.7,0-17.5,0c-1.8,0-1.8,0-1.8-1.9C363.5,348.3,363.5,335.5,363.5,322.8z"/>
	<path class="st3" d="M629.7,322.7v-36.8c0-0.4,0-0.8,0-1.2c0-2,0-2.1,2-2.1h47.9c2.1,0,2.1,0,2.1,2c0,4.7,0,9.4,0,14.1
		c0,1.7,0,1.8-1.8,1.8c-8.7,0-17.5,0-26.2,0c-3,0-2.7-0.4-2.7,2.8c0,2.7,0,5.4,0,8.1c0,1.7,0,1.7,1.8,1.7c7.2,0,14.3,0,21.5,0
		c0.6,0,1.2,0,1.7,0c0.8,0,1.2,0.3,1.2,1.1c0,5.2,0,10.4,0,15.6c0,1.1-0.6,1.1-1.5,1.1c-2.6,0-5.3,0-7.9,0c-5,0-10,0-15.1,0
		c-1.8,0-1.8,0-1.8,1.7c0,3.6,0,7.2,0,10.9c0,1.7,0,1.8,1.8,1.8c5.3,0,10.7,0,16.1,0h11.9c2.5,0,2.2-0.2,2.2,2.3c0,4.3,0,8.6,0,12.8
		c0,3.1,0.3,2.7-2.6,2.7c-13.6,0-27.2,0-40.8,0h-7.4c-2.7,0-2.4,0.3-2.4-2.6C629.7,347.9,629.7,335.3,629.7,322.7z"/>
	<path class="st3" d="M517.2,306.7c-3.7-12-11.1-20.4-23.4-24c-5.5-1.6-11.4-2.1-17.1-1.3c-13.7,1.7-23.7,8.5-28.7,21.4
		c-5.2,13-5,27.5,0.4,40.5c3.7,9.6,11.7,16.8,21.6,19.5c5.7,1.7,11.7,2.1,17.6,1.3c13.2-1.8,22.5-8.7,27.8-20.9
		c2.9-6.6,3.9-13.5,3.9-21.3C519.4,316.8,518.7,311.6,517.2,306.7z M495.5,335.2c-0.7,2.2-1.9,4.2-3.3,6c-4.5,5.7-12.9,6.7-18.6,2.1
		c-0.8-0.7-1.6-1.4-2.2-2.3c-2.2-3-3.7-6.4-4.3-10.1c-1.3-6.5-1.1-13.2,0.6-19.6c0.6-2.1,1.5-4,2.7-5.8c4.1-6.3,12.6-8.1,19-4
		c1.7,1.1,3.1,2.5,4.1,4.2c2.7,4,3.5,8.6,3.9,13.4c0.1,1.1,0,2.3,0,3.5C497.5,326.8,496.9,331.1,495.5,335.2z"/>
</g>
<g id="yellow_kup">
	<path class="st1" d="M349.7,372.8c-0.9,0-1.8,0.1-2.7,0.1H11.2c-3.3,0-2.9,0.4-2.9-2.8c0-36,0-72,0-108c0-0.4,0-0.8,0-1.2
		c-0.2-1.4,0.5-1.7,1.7-1.6c0.5,0,1,0,1.5,0h336c1,0,2.1-0.3,3.1,0.4c-0.5,34.5-0.1,69-0.2,103.5c0,2.2,0,4.5,0,6.7
		C350.5,370.8,350.2,371.9,349.7,372.8z"/>
</g>
<g id="your">
	<path class="st2" d="M222,308.2v-23c0-2.2,0-2.2,2.1-2.2c5.2,0,10.4,0,15.6,0c2,0,2.1,0,2.1,2c0,13.8,0,27.7,0,41.5
		c0.1,6.5-1,13-3.1,19.1c-3.5,9.7-10.3,15.7-20.5,17.7c-7.3,1.5-14.8,1.2-21.9-1.1c-7.3-2.3-13.1-7.7-16-14.8
		c-2.4-5.6-3.7-11.6-3.8-17.7c-0.7-14.9-0.2-29.8-0.3-44.7c0-1.9,0-1.9,1.9-1.9c5.6,0,11.2,0,16.8,0c1.9,0,1.9,0,2,2.1
		c0,14,0,28,0,42c0,2.5,0.1,4.9,0.5,7.4c0.2,1.7,0.6,3.4,1.2,5c1.1,3.8,4.5,6.6,8.4,7c2.3,0.3,4.6,0.2,6.9-0.4
		c3.6-1,5.6-3.6,6.8-6.9c1.2-3.9,1.7-8.1,1.6-12.2C222,320.7,222,314.4,222,308.2z"/>
	<path class="st2" d="M16.7,283.2c0.7-0.2,1.4-0.3,2.1-0.2c5.5,0,11,0,16.6,0c3.1,0,2.5-0.3,3.4,2.4c3.4,9.8,6.7,19.6,10.1,29.4
		c0.4,1,0.3,2.8,1.6,2.8c1.5,0,1.4-1.8,1.8-2.8c3.6-9.9,7-19.8,10.5-29.8c0.7-1.9,0.7-1.9,2.8-2h17.1c0.6,0,1.1,0,1.9,0.1
		c-0.9,2.4-1.9,4.8-3.1,7.1c-6.6,14.4-13.3,28.8-19.9,43.2c-0.5,1-0.7,2.2-0.7,3.3c0,7.9,0,15.8,0,23.7c0,2.3,0.1,2.1-2.2,2.1h-16
		c-2.3,0-2.2,0.2-2.2-2.1c0-7.7,0-15.3,0-23c0-1.6-0.3-3.1-1-4.5c-7.4-15.9-14.7-31.8-22-47.7C17.1,284.6,16.5,284,16.7,283.2z"/>
	<path class="st2" d="M324.5,360.3c-4.9-8.8-9.8-17.5-14.7-26.3c-1.2-2.2-1.2-2.2,1-3.6c4.5-2.8,7.9-7.2,9.5-12.2
		c1.7-5.3,2-10.9,0.8-16.3c-1.4-7.1-6.3-13-13.1-15.7c-5.6-2.2-11.6-3.3-17.6-3.2c-9.3-0.1-18.6,0-27.9,0h-0.7c-1.7,0-1.7,0-1.7,1.8
		c0,0.5,0,1,0,1.5v73.1c0,0.5,0,1,0,1.5c-0.2,1.3,0.3,1.7,1.6,1.7c5.6-0.1,11.2,0,16.8,0c2,0,2,0,2-2c0-7.2,0-14.3,0-21.5
		c0-3.7-0.5-3.3,3.2-3.3c1.9,0,4.1-0.7,5.6,0.3s2,3.2,2.8,4.8c3.5,6.7,6.9,13.5,10.4,20.2c0.4,0.8,0.7,1.5,1.9,1.5c7,0,14,0,21.1,0
		C325.3,361.8,325,361,324.5,360.3z M295.7,318.3c-2.2,0.8-4.4,1.3-6.8,1.3c-2.2,0.1-4.5,0-6.7,0.1c-1.4,0.1-1.6-0.6-1.6-1.8
		c0-2.9,0-5.8,0-8.6l0,0c0-2.9,0-5.8,0-8.6c0-0.8,0.2-1.3,1.1-1.2c4,0.1,8.1-0.3,12.1,0.4c4.7,0.8,7.2,3.3,7.7,7.4
		C302.1,312.3,299.9,316.4,295.7,318.3L295.7,318.3z"/>
	<path class="st2" d="M158.2,303.6c-3.9-9.9-10.8-16.8-21-20.1c-5.8-1.9-12-2.4-18-1.6c-13.6,1.8-23.4,8.9-28.3,21.8
		c-4.4,11.5-4.4,23.3-0.9,35.1c2.8,9.3,8.3,16.7,17.2,21.3c6,3,12.7,4.4,19.4,4c13.3-0.7,23.5-6.5,29.8-18.3
		c3.4-6.6,5.2-14,5.3-21.5C161.6,316,160.6,309.6,158.2,303.6z M137,338.6c-2.4,4.5-5.9,7.4-11.2,7.8c-4.4,0.5-8.8-1.2-11.6-4.7
		c-2.5-3-4.1-6.6-4.6-10.5c-1.4-7.4-1.3-14.8,1.3-21.9c1.8-4.8,4.8-8.4,10-9.7c6.5-1.8,13.4,1.3,16.4,7.4c2.3,4.4,3,9.2,3.1,14.1
		c0,0.4,0,0.8,0,1.2C140.4,328,139.7,333.5,137,338.6L137,338.6z"/>
</g>
<g id="istanbul">
	<g class="st4">
		<path d="M15,448.4v-62.9h12.7v62.9H15z"/>
		<path d="M76.1,427.9l12.4-1.2c0.7,4.2,2.3,7.2,4.5,9.1c2.3,1.9,5.3,2.9,9.2,2.9c4.1,0,7.2-0.9,9.3-2.6c2.1-1.7,3.1-3.8,3.1-6.1
			c0-1.5-0.4-2.8-1.3-3.8c-0.9-1-2.4-2-4.6-2.7c-1.5-0.5-4.9-1.4-10.2-2.7c-6.8-1.7-11.6-3.8-14.3-6.2c-3.9-3.5-5.8-7.7-5.8-12.7
			c0-3.2,0.9-6.2,2.7-9c1.8-2.8,4.4-4.9,7.9-6.4c3.4-1.5,7.5-2.2,12.4-2.2c7.9,0,13.8,1.7,17.8,5.2c4,3.5,6.1,8.1,6.3,13.9
			l-12.7,0.6c-0.5-3.2-1.7-5.6-3.5-7c-1.8-1.4-4.5-2.1-8-2.1c-3.7,0-6.6,0.8-8.7,2.3c-1.3,1-2,2.3-2,3.9c0,1.5,0.6,2.8,1.9,3.8
			c1.6,1.3,5.5,2.7,11.7,4.2c6.2,1.5,10.8,3,13.7,4.5c3,1.6,5.3,3.7,7,6.4c1.7,2.7,2.5,6,2.5,10c0,3.6-1,7-3,10.1
			c-2,3.1-4.8,5.5-8.5,7c-3.7,1.5-8.2,2.3-13.7,2.3c-8,0-14.1-1.8-18.3-5.5C79.5,440.3,77,434.9,76.1,427.9z"/>
	</g>
	<g class="st4">
		<path d="M173,448.4v-52.3h-18.7v-10.6h50v10.6h-18.6v52.3H173z"/>
	</g>
	<g class="st4">
		<path d="M292.3,448.4h-13.8l-5.5-14.3h-25.2l-5.2,14.3h-13.5l24.5-62.9h13.4L292.3,448.4z M268.9,423.5l-8.7-23.4l-8.5,23.4H268.9
			z"/>
		<path d="M338.7,448.4v-62.9h12.4l25.8,42v-42h11.8v62.9h-12.8l-25.4-41v41H338.7z"/>
		<path d="M441.7,385.4h25.2c5,0,8.7,0.2,11.1,0.6c2.4,0.4,4.6,1.3,6.6,2.6s3.5,3.1,4.8,5.3c1.3,2.2,1.9,4.6,1.9,7.4
			c0,2.9-0.8,5.7-2.4,8.1c-1.6,2.5-3.7,4.3-6.5,5.5c3.8,1.1,6.8,3,8.8,5.7c2.1,2.7,3.1,5.9,3.1,9.5c0,2.9-0.7,5.6-2,8.3
			c-1.3,2.7-3.1,4.9-5.5,6.5c-2.3,1.6-5.1,2.6-8.5,3c-2.1,0.2-7.2,0.4-15.3,0.4h-21.4V385.4z M454.4,395.9v14.6h8.3
			c5,0,8-0.1,9.2-0.2c2.2-0.3,3.9-1,5.1-2.3c1.2-1.2,1.9-2.9,1.9-4.9c0-1.9-0.5-3.5-1.6-4.7s-2.7-2-4.8-2.2
			c-1.3-0.1-4.9-0.2-10.9-0.2H454.4z M454.4,420.9v16.8h11.8c4.6,0,7.5-0.1,8.7-0.4c1.9-0.3,3.4-1.2,4.6-2.5
			c1.2-1.3,1.8-3.1,1.8-5.3c0-1.9-0.5-3.5-1.4-4.8s-2.2-2.3-4-2.9c-1.7-0.6-5.5-0.9-11.3-0.9H454.4z"/>
		<path d="M544.6,385.4h12.7v34.1c0,5.4,0.2,8.9,0.5,10.5c0.5,2.6,1.8,4.6,3.9,6.2c2,1.6,4.8,2.3,8.4,2.3c3.6,0,6.3-0.7,8.2-2.2
			c1.8-1.5,2.9-3.3,3.3-5.4c0.4-2.1,0.6-5.7,0.6-10.7v-34.8h12.7v33.1c0,7.6-0.3,12.9-1,16c-0.7,3.1-2,5.8-3.8,7.9s-4.3,3.9-7.4,5.1
			c-3.1,1.3-7.1,1.9-12.1,1.9c-6,0-10.6-0.7-13.7-2.1c-3.1-1.4-5.6-3.2-7.4-5.4c-1.8-2.2-3-4.5-3.6-7c-0.8-3.6-1.2-8.9-1.2-16V385.4
			z"/>
		<path d="M648.1,448.4V386h12.7v51.8h31.6v10.6H648.1z"/>
	</g>
</g>
<g id="Layer_12">
	<path class="st1" d="M428.5,76.2c-3.3-18-12.4-34.3-26-46.6c-6.4-5.8-13.7-10.6-21.5-14.2c-8.4-3.9-17.5-6.2-26.8-6.7
		c-4.5,0-9-0.2-13.6,0.2c-11.5,0.8-22.8,3.9-33,9.2c-9.5,5-17.9,11.7-24.8,19.9c-7.9,9.3-13.7,20.2-16.9,32
		c-1.4,5.1-2.3,10.3-2.6,15.5c-0.4,4.8-0.3,9.5,0.3,14.3c0.8,6.5,2.2,12.9,4.3,19.2c1.2,3.7,2.5,7.3,4,10.9v0.1
		c0.4,1,0.8,1.9,1.3,2.9c0.2,0.3,0.2,0.7,0.2,1c0.1,0.2,0.1,0.4,0.2,0.6c2.9,7.2,9.2,21.7,17,31.4c3.8,6,7.7,11.9,11.8,17.7
		c9.3,13.1,19.3,25.8,29.8,37.9c3.5,4,7,8,10.6,12c2,2.2,3.6,2.3,6,0.6c0.5-0.3,0.8-0.9,1.5-0.6c0.9-0.1,1.3-0.9,1.9-1.5
		c2.6-2.8,5.1-5.8,7.7-8.7c15.1-17.1,28.9-35.3,41.3-54.5c9.9-15.4,18.4-31.6,24.1-49.1C429.8,105.3,431.4,90.9,428.5,76.2z"/>
</g>
<g id="Layer_13">
	<circle class="st3" cx="346.5" cy="90.7" r="66.8"/>
</g>
<g id="h_shadow">
	<path class="st5" d="M355,125.3l18.7-0.1c2.8,0,2.7,0.3,2.7-2.6V93.8c0-0.5,0-1,0-1.5c0-2,0-2.1,2-2.1c2.9,0,5.8,0,8.6,0
		c0.7,0,1.5,0.3,2-0.5c0.8,0,0.8,0.4,0.5,0.9l-7.9,0.1c-2.6,0-2.6,0-2.6,2.5c0,9.9,0,19.7,0,29.6c0,3.4,0.2,3-2.9,3
		c-6.4,0-12.8,0-19.2,0C356.3,125.8,355.5,126,355,125.3z"/>
	<path class="st6" d="M313.9,125.3l20.5-0.1c3.1,0,3,0.4,3-2.9c0-5.7,0-11.3,0-17c0-2.2,0-2.2,2.2-2.2c3.5,0,7.1,0,10.6,0
		c0.6,0,1.3-0.2,1.9,0.3c-3.3,0.4-6.6,0.1-9.9,0.2c-2,0-2.1,0-2.1,2c0,5.8,0,11.7,0,17.5c0,2.5,0,2.5-2.4,2.5c-7.3,0-14.7,0-22,0
		C315.1,125.8,314.4,126,313.9,125.3z"/>
	<path class="st0" d="M389.6,90.6c0-0.4-0.2-0.7-0.5-0.9c-3.2-2.8-6.3-5.7-9.6-8.5c-0.6-0.6-0.9-1.5-0.8-2.4
		c0-5.6,0.1-11.1,0.1-16.7c0.1-1,0-2-0.2-2.9c0.1,0,0.2,0,0.2,0c2.7,0.8,2.7,0.8,2.7,3.9c0,5.4,0,10.9-0.1,16.3
		c-0.1,1.1,0.3,2.1,1.2,2.8c2.5,2.2,5,4.5,7.5,6.8c0.5,0.4,1.1,0.8,1.3,1.6C390.8,90.7,390.2,90.7,389.6,90.6z"/>
	<path class="st7" d="M369.7,68.4c0.4,1.1,0,2.1-0.2,3.5c-4.2-3.4-7.8-7-11.6-10.4s-7.6-6.9-11.4-10.4c1.1-0.4,2.3-0.1,3,0.8
		c6.4,6,13,11.8,19.4,17.7C369.6,69.4,369.3,68.7,369.7,68.4z"/>
</g>
<g id="hous">
	<path class="st2" d="M355,125.3l-2.2-0.1c-0.5-0.6-0.3-1.4-0.3-2.1c0-5.8,0-11.5,0-17.3c0-0.8,0.4-1.6-0.4-2.3
		c-3.7-0.6-7.5-0.2-11.3-0.2c-1.9,0-2.8,1.4-2.8,3.3c0,4.9,0,9.7,0,14.5c0,0.9,0,1.8-0.1,2.7c-0.2,1-0.6,1.6-1.8,1.6
		c-7.4-0.1-14.8,0.2-22.1-0.2l-0.7-0.1c-1.8-0.1-1.8-0.1-1.8-1.9V92.7c0-3.3,0-3.3-3.2-3.3c-2.7,0.1-5.4,0-8.1-0.3
		c-0.2-0.7,0.5-0.9,0.9-1.2c14.3-12.1,28.6-24.3,42.9-36.4c0.9-0.7,1.7-1.8,2.8-0.3c1.4,0.5,2.6,1.3,3.6,2.4
		c5.8,5.5,11.8,10.8,17.8,16.2c2.1,1.9,1.3-0.8,1.8-1.5c0-2.6,0.1-5.3,0.1-7.9c0-1,0.3-1.5,1.4-1.5c2.5,0.1,4.9,0.1,7.4,0.1
		c0.9,1,0.7,2.1,0.8,3.3c0,4.9,0.1,9.7,0,14.6c-0.2,2,0.7,3.9,2.2,5.1c2,1.6,3.7,3.5,5.7,5.1c0.9,0.7,2.2,1.4,1.8,3
		c-2.5,0.5-5.1,0.2-7.6,0.2c-3.7,0.1-4.4,0.6-4.4,4.3c0,8.7,0,17.5,0,26.2c0.1,1.1,0,2.1-0.2,3.2c-0.2,0.9-0.6,1.5-1.7,1.5
		C368.4,125.4,361.7,125.7,355,125.3z"/>
</g>
<g id="lens">
	<path class="st2" d="M414.2,84.8c-3.2-32.4-28.7-58-61-61.6c-12.7-1.5-25.5,0.7-37,6.4c-14.8,7-26.6,19.2-33.1,34.3
		c-5.1,11.2-6.9,23.7-5.3,35.9c1.2,9.5,4.4,18.6,9.4,26.8c0.4,0.6,1.2,1.3,0.6,2c-0.9,0.9-1.8,2.6-2.9,2.4c-1.4-0.3-2.5,0.3-3.6,0.1
		c-1.9-0.4-2.9,0.7-4.1,1.7s-2.1,1.9-3.1,2.8c-0.4,0.5-1.1,0.8-1.7,0.8l-32.8,29.3c-5.3,4.8-10.7,9.5-16,14.3
		c-3.5,3.2-3.7,7.4-0.6,11c1.3,1.5,2.7,2.9,3.9,4.4c3.2,4.1,8.4,3.7,11.7,0.8c14.6-13.2,29.3-26.3,44-39.4c0.1-1,1-1.5,1.6-2.1
		c2.4-2.2,4.7-4.7,7.4-6.5c1.3-0.8,1.4-2.1,1.6-3.3l0.5-3.4c-0.2-0.8,0.9-1.3,1.4-2c0.8-0.9,1.5-0.8,2.3,0c1.1,1.1,2.2,2.2,3.4,3.2
		c15.3,13.1,33,18.9,53.1,16.5c20.7-2.5,37-12.6,48.8-29.8C411.8,116.5,415.9,100.6,414.2,84.8z M346,147.3
		c-30.5,0-55.2-25.4-55.2-56.8s24.7-56.8,55.2-56.8c30.5,0,55.2,25.4,55.2,56.8S376.5,147.3,346,147.3z"/>
</g>
</svg>
