<svg xmlns="http://www.w3.org/2000/svg" width="154.326" height="155.984" viewBox="0 0 154.326 155.984">
  <g id="Group_45" data-name="Group 45" transform="translate(-52.02 -172.343)">
    <path id="Path_96" data-name="Path 96" d="M79.773,206.719l-2.895-3.852c-2.818,2.242-5.553,4.417-8.285,6.593-2.251,1.792-4.487,3.6-6.753,5.375-1.8,1.406-3.007,1.25-4.36-.617-5.874-8.111-7.161-16.951-3.113-26.082,4.1-9.237,11.576-14.426,21.662-15.358,8.748-.809,16.1,2.284,21.911,8.924,1.613,1.844,1.5,3-.469,4.569q-7.92,6.3-15.864,12.576c-.324.257-.637.528-1.048.87l2.9,3.61A71.512,71.512,0,0,1,125.275,187.5v-7.072c-1.209,0-2.385.022-3.561-.005-1.745-.041-2.674-.876-2.695-2.37-.021-1.559.946-2.435,2.779-2.443q5.965-.024,11.931,0c1.9.008,2.786.8,2.788,2.4s-.849,2.364-2.78,2.415c-1.045.028-2.09.038-3.136.06a1.257,1.257,0,0,0-.266.116v6.892a75.35,75.35,0,0,1,42.491,15.824l3.877-4.855c-1.843-1.487-3.617-2.923-5.4-4.352q-5.138-4.129-10.279-8.254c-1.686-1.358-1.81-2.49-.476-4.118a25.87,25.87,0,0,1,45.7,14.4,25.239,25.239,0,0,1-5.091,17.662c-1.622,2.166-2.629,2.3-4.786.572Q189.27,208.685,182.165,203c-.61-.488-1.228-.965-1.92-1.508l-4.188,5.216c16.029,15.879,23.692,34.952,21.783,57.431-1.573,18.531-9.594,34.091-23.521,46.394a69.813,69.813,0,0,1-95.884-2.606C64.3,294,57.167,276.915,57.452,257.044,57.736,237.245,65.464,220.549,79.773,206.719Zm47.9,116.7a65.523,65.523,0,0,0,.292-131.045c-36.074-.122-65.553,29.3-65.659,65.533C62.2,293.776,91.719,323.364,127.669,323.418Zm37.684-140,32.971,26.176c5.814-8.2,3.678-20.655-4.6-27.508C185.383,175.175,172.777,175.713,165.353,183.418Zm-72.211,0A21.124,21.124,0,0,0,64.511,182.3c-8.07,6.869-10.114,19.418-4.326,27.289Z"/>
    <path id="Path_97" data-name="Path 97" d="M116.481,323.516a55.519,55.519,0,1,1,55.5,55.5A55.566,55.566,0,0,1,116.481,323.516ZM169.6,373.97c0-.826-.008-1.55,0-2.273.027-2.19.739-3.113,2.4-3.123,1.685-.01,2.425.923,2.438,3.081,0,.767,0,1.534,0,2.3,25.589-.449,47.687-22.868,48.044-48.012-.93,0-1.862.031-2.79-.007-1.708-.07-2.608-.955-2.589-2.489a2.3,2.3,0,0,1,2.511-2.409c.976-.051,1.957-.009,2.937-.009-.905-27.387-24.645-47.877-48.038-47.972-.024.5-.058,1.015-.072,1.527s.021,1.048-.019,1.569a2.24,2.24,0,0,1-2.315,2.264,2.216,2.216,0,0,1-2.472-2.245c-.067-1.03-.013-2.068-.013-3.341-13.4.833-24.682,5.839-33.9,15.279a49.889,49.889,0,0,0-14.365,32.918c1.175,0,2.113-.038,3.046.008a2.452,2.452,0,1,1-.03,4.9c-.972.042-1.947.008-2.922.008C122.435,352.9,145.314,373.479,169.6,373.97Z" transform="translate(-44.228 -65.593)"/>
    <path id="Path_98" data-name="Path 98" d="M258.33,409.124v3.969h-4.039v-4.757a29.033,29.033,0,0,1-15.91-7.139l4.573-5.543c3.291,2.656,6.7,4.992,11.263,5.522,0-2.865.008-5.564,0-8.264-.006-1.3.4-2.9-.211-3.825-.535-.81-2.226-.844-3.4-1.254s-2.366-.831-3.52-1.314c-9.2-3.849-8.14-15.845-2.379-20.153a18.154,18.154,0,0,1,9.464-3.409V359.95H258.3v2.99a28.3,28.3,0,0,1,13.383,4.954l-4.027,5.712c-1.527-.767-2.964-1.611-4.494-2.219-1.484-.59-3.064-.939-4.58-1.386,0,3.963-.029,7.718.048,11.471.007.356.625.857,1.061,1.021,2.1.788,4.3,1.323,6.335,2.247a10.9,10.9,0,0,1,6.886,10.164c.176,4.907-1.762,8.758-6.028,11.063C264.327,407.351,261.383,408.028,258.33,409.124Zm.1-7.537c3.536.026,6.221-1.859,6.491-4.5.351-3.428-2.022-5.844-6.491-6.595ZM254.1,381.029V370.211c-3.434.1-5.741,1.989-6.006,4.832C247.813,378.1,249.959,380.264,254.1,381.029Z" transform="translate(-127.866 -128.721)"/>
  </g>
</svg>
