<svg xmlns="http://www.w3.org/2000/svg" width="149.921" height="174" viewBox="0 0 149.921 174">
  <g id="Layer_31" data-name="Layer 31" transform="translate(-5.29 -1)">
    <path id="Path_99" data-name="Path 99" d="M90.581,98.806H88.251a39.29,39.29,0,0,0,17.512-22.452h.253a12.6,12.6,0,0,0,1.4-25.118V48.29a39.094,39.094,0,0,0-3.985-17.147c7.1-1.656,12.4-4.21,12.4-8.111,0-5.613-10.749-9.233-31.937-10.693a38.926,38.926,0,0,0-31.545,0C31.168,13.8,20.419,17.419,20.419,23.032c0,3.9,5.3,6.455,12.4,8.111A39.094,39.094,0,0,0,28.839,48.29v2.947a12.649,12.649,0,1,0,1.4,25.258h.253A39.29,39.29,0,0,0,48.007,98.946H45.677A33.678,33.678,0,0,0,12,132.484v25.258a2.806,2.806,0,0,0,2.806,2.806H121.452a2.806,2.806,0,0,0,2.806-2.806V132.483A33.677,33.677,0,0,0,90.581,98.806Zm-37.8,5.613,10.917,13.106-10.777,5.388-6.146-18.495Zm23.378,0-8.026,9.654L60.1,104.419Zm7.325,0h6.006L83.34,122.913l-10.777-5.388Zm29.552-40.694A7.044,7.044,0,0,1,107,70.741a40.049,40.049,0,0,0,.421-5.613V56.849A7.016,7.016,0,0,1,113.032,63.725Zm-3.255-40.694a29.524,29.524,0,0,1-9.317,2.975,39.767,39.767,0,0,0-6.2-6.988C103.294,20.225,108.149,21.965,109.777,23.032ZM94.229,27.045a192.24,192.24,0,0,1-26.1,1.6,192.241,192.241,0,0,1-26.1-1.6,33.677,33.677,0,0,1,52.2,0ZM26.481,23.032c1.628-1.066,6.483-2.806,15.52-4.013a39.768,39.768,0,0,0-6.2,6.988A29.524,29.524,0,0,1,26.481,23.032ZM68.129,34.257a209.951,209.951,0,0,0,29.608-2.021,33.677,33.677,0,0,1,4.069,16.053V51.1A26.212,26.212,0,0,1,81.768,38.579a2.806,2.806,0,0,0-4.827,0A26.212,26.212,0,0,1,54.49,51.236H34.452V48.29a33.682,33.682,0,0,1,4.072-16.057,209.953,209.953,0,0,0,29.606,2.025Zm-44.9,29.468a7.017,7.017,0,0,1,5.614-6.876v8.279a40.049,40.049,0,0,0,.421,5.613,7.044,7.044,0,0,1-6.034-7.016Zm11.226,1.4V56.709H54.574A31.909,31.909,0,0,0,79.355,44.782a31.965,31.965,0,0,0,22.452,11.927v8.419a33.677,33.677,0,0,1-67.355,0ZM17.613,132.483A28.065,28.065,0,0,1,40.991,104.84l7.634,22.929a2.8,2.8,0,0,0,3.929,1.6L65.323,123v31.937H34.452V138.1H28.839v16.839H17.613Zm101.032,22.452H107.419V138.1h-5.613v16.839H70.936V123L83.7,129.368a2.948,2.948,0,0,0,3.929-1.684l7.634-22.929a28.065,28.065,0,0,1,23.378,27.728Z" transform="translate(12.121 14.452)"/>
    <path id="Path_100" data-name="Path 100" d="M41.032,33A14.032,14.032,0,0,0,27,47.032h5.613a8.419,8.419,0,1,1,16.839,0h5.613A14.032,14.032,0,0,0,41.032,33Z" transform="translate(39.218 57.806)"/>
    <path id="Path_101" data-name="Path 101" d="M63.226,19.016a1.4,1.4,0,0,1,1.4-1.4h4.21V12h-4.21a7.016,7.016,0,0,0-7.016,7.016,1.4,1.4,0,0,1-1.4,1.4H52v5.613h4.21A7.016,7.016,0,0,0,63.226,19.016Z" transform="translate(84.379 19.871)"/>
    <path id="Path_102" data-name="Path 102" d="M11.613,19.016a7.016,7.016,0,0,0,7.016,7.016h4.21V20.419h-4.21a1.4,1.4,0,0,1-1.4-1.4A7.016,7.016,0,0,0,10.21,12H6v5.613h4.21A1.4,1.4,0,0,1,11.613,19.016Z" transform="translate(1.283 19.871)"/>
    <path id="Path_103" data-name="Path 103" d="M22.129,21.29,19.322,24.1a.982.982,0,0,1-1.628,0,6.96,6.96,0,0,0-9.6,0L5.29,26.9l3.985,3.985,2.806-2.806a.982.982,0,0,1,1.628,0,6.96,6.96,0,0,0,9.6,0l2.806-2.806Z" transform="translate(0 36.653)"/>
    <path id="Path_104" data-name="Path 104" d="M69.307,24.1a6.96,6.96,0,0,0-9.6,0,.982.982,0,0,1-1.628,0L55.275,21.29,51.29,25.275,54.1,28.082a6.96,6.96,0,0,0,9.6,0,.982.982,0,0,1,1.628,0l2.806,2.806L72.114,26.9Z" transform="translate(83.097 36.653)"/>
    <path id="Path_105" data-name="Path 105" d="M18,3h5.613V8.613H18Z" transform="translate(22.96 3.613)"/>
    <path id="Path_106" data-name="Path 106" d="M18,7h5.613v5.613H18Z" transform="translate(22.96 10.839)"/>
    <path id="Path_107" data-name="Path 107" d="M16,5h5.613v5.613H16Z" transform="translate(19.347 7.226)"/>
    <path id="Path_108" data-name="Path 108" d="M20,5h5.613v5.613H20Z" transform="translate(26.573 7.226)"/>
    <path id="Path_109" data-name="Path 109" d="M44,1h5.613V6.613H44Z" transform="translate(69.928)"/>
    <path id="Path_110" data-name="Path 110" d="M44,5h5.613v5.613H44Z" transform="translate(69.928 7.226)"/>
    <path id="Path_111" data-name="Path 111" d="M42,3h5.613V8.613H42Z" transform="translate(66.315 3.613)"/>
    <path id="Path_112" data-name="Path 112" d="M46,3h5.613V8.613H46Z" transform="translate(73.541 3.613)"/>
  </g>
</svg>
