<svg xmlns="http://www.w3.org/2000/svg" width="96.382" height="148.711" viewBox="0 0 96.382 148.711">
  <g id="snap" transform="translate(-90.213)">
    <path id="Path_117" data-name="Path 117" d="M174.065,61.116a4.055,4.055,0,0,1-.39-2.1l2.094-25.312a9.374,9.374,0,0,0-10.615-10.06,17.572,17.572,0,0,0-6.2,2.081c-.151-.207-.306-.411-.472-.609a11.142,11.142,0,0,0-15.676-1.383L125.775,37.992V34.8a1.17,1.17,0,0,1,.205-.663l3.533-5.17a2.175,2.175,0,0,0-3.592-2.455l-3.533,5.17a5.5,5.5,0,0,0-.964,3.118v6.83L107.868,52.979V32.49a11.551,11.551,0,0,1,2.022-6.544L122.333,7.738a6.778,6.778,0,0,1,11.193,7.648l-2.283,3.341a2.175,2.175,0,1,0,3.592,2.455l2.283-3.341A11.129,11.129,0,0,0,118.74,5.284L106.3,23.492a15.887,15.887,0,0,0-2.781,9V56.62l-6.524,5.46a18.965,18.965,0,0,0-6.723,16l1.385,17.607a2.175,2.175,0,0,0,2.166,2q.086,0,.173-.007a2.175,2.175,0,0,0,2-2.339L94.608,77.741a14.606,14.606,0,0,1,5.178-12.325L145.6,27.071a6.778,6.778,0,1,1,8.707,10.39L130.46,57.448a9.782,9.782,0,0,0-4.129,2.14L114.674,69.735a2.175,2.175,0,1,0,2.857,3.281L129.188,62.87a5.359,5.359,0,0,1,7.033-.04l17.631,15a6.77,6.77,0,0,1-2.477,11.659L139.04,78.992a9.685,9.685,0,0,0-12.708.073L114.674,89.211a2.175,2.175,0,1,0,2.857,3.281l11.657-10.147a5.359,5.359,0,0,1,7.033-.04l17.631,15a6.778,6.778,0,1,1-8.783,10.326l-10.913-9.283a2.175,2.175,0,0,0-2.948.119l-3.239,3.239a2.175,2.175,0,0,0,3.076,3.076l1.82-1.82,9.385,7.983a11.044,11.044,0,0,0,7.192,2.653c.3,0,.608-.012.914-.037a11.129,11.129,0,0,0,6.315-19.57l-1.622-1.379a11.123,11.123,0,0,0,1.622-18.1l-7.817-6.649,4.724-24.113,3.526-2.955A11.14,11.14,0,0,0,160.788,29.7a13.191,13.191,0,0,1,4.958-1.745,5.023,5.023,0,0,1,5.688,5.391l-2.094,25.312a8.409,8.409,0,0,0,.809,4.351l3.873,8.011A37.762,37.762,0,0,1,174.475,103l-2.491,5.547a2.175,2.175,0,1,0,3.969,1.782l2.491-5.547a42.1,42.1,0,0,0-.5-35.654Zm-29.012,3.516-6.014-5.115a9.866,9.866,0,0,0-2.448-1.53l11.682-9.79Z" transform="translate(0 -0.306)"/>
    <path id="Path_118" data-name="Path 118" d="M347.758,398.265a2.175,2.175,0,0,0-2.875,1.093l-5.571,12.406a2.175,2.175,0,0,0-.191.891v16.5a2.175,2.175,0,0,0,4.351,0V413.122l5.38-11.981A2.176,2.176,0,0,0,347.758,398.265Z" transform="translate(-176.716 -282.619)"/>
    <path id="Path_119" data-name="Path 119" d="M320.033,13.537a2.175,2.175,0,0,0,2.175-2.175V2.175a2.175,2.175,0,0,0-4.351,0v9.187A2.175,2.175,0,0,0,320.033,13.537Z" transform="translate(-161.62)"/>
    <path id="Path_120" data-name="Path 120" d="M354.642,24.509a2.175,2.175,0,0,0,2.959-.842l4.47-8.026a2.175,2.175,0,0,0-3.8-2.117L353.8,21.55A2.176,2.176,0,0,0,354.642,24.509Z" transform="translate(-186.942 -8.809)"/>
    <path id="Path_121" data-name="Path 121" d="M392.428,49.133a2.175,2.175,0,0,0-2.995-.7l-7.81,4.837a2.175,2.175,0,1,0,2.291,3.7l7.81-4.837A2.175,2.175,0,0,0,392.428,49.133Z" transform="translate(-206.16 -34.151)"/>
    <path id="Path_122" data-name="Path 122" d="M108.478,369.541a30.151,30.151,0,0,1-6.3-14.876,2.175,2.175,0,1,0-4.314.562,34.5,34.5,0,0,0,7.21,17.023l8.975,11.279v13.321a2.175,2.175,0,1,0,4.351,0V382.768a2.176,2.176,0,0,0-.473-1.354Z" transform="translate(-5.419 -250.455)"/>
  </g>
</svg>
