<svg xmlns="http://www.w3.org/2000/svg" width="158.877" height="165.987" viewBox="0 0 158.877 165.987">
  <g id="winner" transform="translate(-10.967 0.001)">
    <g id="Group_46" data-name="Group 46" transform="translate(10.966 -0.001)">
      <path id="Path_113" data-name="Path 113" d="M164.481,132.683c-3.744-1.551-9.1-.5-12.02,5.469l-.024.051L141.7,161.195a8.709,8.709,0,0,0-10.6,3.312c-.8,1.235-3.444,5.459-6.24,9.93-2.654,4.246-5.4,8.635-6.17,9.822-1.586,2.44-4.525,5.246-7.636,8.216-8.629,8.237-20.254,19.337-18.606,36.709H88.369a33.835,33.835,0,0,0-5.9-22.489,3.242,3.242,0,1,0-5.416,3.565c4.038,6.135,5.577,12.194,4.792,18.923H54.9l.35-7.02a3.242,3.242,0,0,0-.781-2.276L43.092,206.673c-7.14-8.293-8.612-10.907-12.12-21.512-2.878-8.7-6.213-19.855-8.893-28.817-2.024-6.769-3.624-12.12-4.393-14.291-.642-1.885.2-3,1.124-3.381,1.316-.547,2.734.336,3.7,2.3l11.916,25.51a12.81,12.81,0,0,0,.337,6.633A145.072,145.072,0,0,0,42.82,195.3a3.242,3.242,0,1,0,5.857-2.78,138.448,138.448,0,0,1-7.665-21.144c-.6-2.165-.526-3.511.224-4a2.151,2.151,0,0,1,1.634-.3,2.213,2.213,0,0,1,1.412.965c1.62,2.492,3.2,5.123,4.867,7.909,2.65,4.42,5.39,8.99,8.309,12.946a3.242,3.242,0,1,0,5.217-3.85c-2.735-3.707-5.394-8.142-7.965-12.431-1.626-2.713-3.308-5.518-4.991-8.108a8.709,8.709,0,0,0-10.6-3.312L28.374,138.2l-.024-.051c-2.917-5.97-8.275-7.02-12.02-5.469a8.885,8.885,0,0,0-4.77,11.49l.011.031c.712,2.006,2.373,7.563,4.3,14,2.692,9,6.042,20.2,8.949,28.995,3.78,11.429,5.653,14.752,13.361,23.706l10.53,12.231-.3,6.048h-3.38a3.242,3.242,0,0,0-3.242,3.242V251.98a3.242,3.242,0,0,0,3.242,3.242h90.758a3.242,3.242,0,0,0,3.242-3.242V232.425a3.242,3.242,0,0,0-3.242-3.242H132.4l-.3-6.048,10.53-12.231c7.708-8.955,9.582-12.278,13.361-23.706,2.908-8.793,6.258-20,8.95-29,1.924-6.433,3.585-11.989,4.3-13.994l.011-.031a8.885,8.885,0,0,0-4.769-11.49ZM48.268,235.667h38.9v13.072h-38.9Zm84.274,13.072h-38.9V235.667h38.9Zm30.581-106.685c-.769,2.171-2.368,7.52-4.392,14.287-2.68,8.962-6.015,20.117-8.894,28.82-3.507,10.6-4.979,13.218-12.119,21.512l-11.375,13.214a3.242,3.242,0,0,0-.781,2.276l.35,7.02H98.959c-1.684-14.6,7.986-23.83,16.565-32.019,3.393-3.239,6.6-6.3,8.6-9.372.8-1.234,3.439-5.452,6.231-9.917,2.658-4.251,5.406-8.647,6.178-9.835a2.214,2.214,0,0,1,1.412-.965,2.15,2.15,0,0,1,1.634.3c.75.492.825,1.838.223,4a138.349,138.349,0,0,1-7.665,21.144,3.242,3.242,0,0,0,5.857,2.78,145.1,145.1,0,0,0,8.054-22.187,12.808,12.808,0,0,0,.338-6.633L158.3,140.974c.968-1.966,2.384-2.847,3.7-2.3.921.382,1.766,1.5,1.124,3.382Z" transform="translate(-10.966 -89.235)"/>
      <path id="Path_114" data-name="Path 114" d="M144.571,50.756l-2.1,16.027a9.644,9.644,0,0,0,.808,6.1,9.74,9.74,0,0,0,13.017,4.492l14.712-7.162,15.108,7.2a9.736,9.736,0,0,0,13.824-10.128l-2.267-16.223,11.185-11.8a9.737,9.737,0,0,0-5.043-16.631L187.691,19.77,179.7,5.075v0a9.718,9.718,0,0,0-17.108.076L154.9,19.6l-16.2,3.011A9.725,9.725,0,0,0,133.2,38.961Zm-6.612-20.874a3.214,3.214,0,0,1,1.759-.868l.11-.018,17.788-3.306a3.244,3.244,0,0,0,2.269-1.663L168.315,8.2a3.234,3.234,0,0,1,5.691-.028l8.734,16.067a3.242,3.242,0,0,0,2.283,1.644l17.667,3.13a3.253,3.253,0,0,1,1.663,5.58c-.048.045-.1.091-.141.14l-12.321,13a3.242,3.242,0,0,0-.858,2.679l2.483,17.765a3.259,3.259,0,0,1-4.611,3.383l-16.52-7.87a3.242,3.242,0,0,0-2.813.012l-16.116,7.845a3.257,3.257,0,0,1-4.35-1.5,3.217,3.217,0,0,1-.262-2.075c.016-.077.029-.155.039-.232L151.2,50.051a3.242,3.242,0,0,0-.88-2.672L137.869,34.463a3.24,3.24,0,0,1,.089-4.582Z" transform="translate(-91.736 0.001)"/>
      <path id="Path_115" data-name="Path 115" d="M238.162,104.165a3.242,3.242,0,0,0,0,6.484h7.188a3.242,3.242,0,0,0,0-6.484H245V81.473a3.242,3.242,0,0,0-4.863-2.807l-3.594,2.075a3.242,3.242,0,0,0,1.973,6.031v17.394h-.352Z" transform="translate(-162.317 -52.869)"/>
      <path id="Path_116" data-name="Path 116" d="M187.034,323.737a3.242,3.242,0,1,0,3.244,3.242,3.241,3.241,0,0,0-3.244-3.242Z" transform="translate(-127.765 -218.786)"/>
    </g>
  </g>
</svg>
